# xmcd
#
# Track frame offsets:
#	150
#	15594
#	35241
#	58701
#	73397
#	101073
#	112288
#	134018
#	151775
#	176978
#
# Disc length: 2639
#
# Revision: 3
# Processed by: cddbd v1.5.1PL0 Copyright (c) Steve Scherf et al.
# Submitted via: EasyCDDAExtractor 7.1.1.1
# Normalized: r2:DSETVAR1
#
DISCID=9b0a4d0a
DTITLE=Various Artist - Solo Ellos
DYEAR=1900
DGENRE=Blues
TTITLE0=BARRY WHITE - You´re The First, The Last, My Everything
TTITLE1=ROBERT PALMER - Addicted To Love
TTITLE2=ROD STEWART - Maggie May
TTITLE3=ELTON JOHN - Goodbye Yellow Brick Road
TTITLE4=LIONEL RICHIE - Love Will Find A Way
TTITLE5=MARVIN GAYE - Ain´t No Mountain Hight Enough
TTITLE6=BLACK - Wonderful Life
TTITLE7=GLENN MEDEIROS - Nothing´s Gonna Change My Love For You
TTITLE8=EXTREME - More Than Words
TTITLE9=Varios - The Great Song Of Indifference
EXTD=
EXTT0=
EXTT1=
EXTT2=
EXTT3=
EXTT4=
EXTT5=
EXTT6=
EXTT7=
EXTT8=
EXTT9=
PLAYORDER=
